<?xml version="1.0" encoding="utf-8"?>
<!-- Generator: Adobe Illustrator 24.3.0, SVG Export Plug-In . SVG Version: 6.00 Build 0)  -->
<svg version="1.1" id="Lager_1" xmlns="http://www.w3.org/2000/svg" xmlns:xlink="http://www.w3.org/1999/xlink" x="0px" y="0px"
	 viewBox="0 0 300 300" style="enable-background:new 0 0 300 300;" xml:space="preserve">
<path d="M263.89,271.44L247.16,85.14c-0.46-5.09-4.72-8.99-9.83-8.99h-34.5V60.59c0-29-23.59-52.59-52.59-52.59
	c-29,0-52.58,23.59-52.58,52.59v15.56H63.14c-5.11,0-9.37,3.9-9.83,8.99l-16.8,187.04c-0.25,2.76,0.68,5.5,2.55,7.54
	s4.51,3.21,7.28,3.21h207.79c0.01,0,0.02,0,0.03,0c5.45,0,9.87-4.42,9.87-9.87C264.02,272.51,263.98,271.97,263.89,271.44z
	 M117.4,60.59c0-18.12,14.74-32.86,32.85-32.86c18.11,0,32.85,14.74,32.85,32.86v15.56h-65.7V60.59z M57.41,259.89L70.67,99.91
	c0.18-2.12,1.93-3.75,4.06-3.77l22.89-0.24c0.03,0,0.05,0.02,0.05,0.05l0,17.14c0,5.43,4.18,10.18,9.61,10.32
	c5.57,0.14,10.13-4.33,10.13-9.86v-17.6c0-0.03,0.02-0.05,0.05-0.05h65.61c0.03,0,0.05,0.02,0.05,0.05l0,17.14
	c0,5.43,4.18,10.18,9.61,10.32c5.57,0.14,10.13-4.33,10.13-9.86v-17.6c0-0.03,0.02-0.05,0.05-0.05l23.66,0.25
	c2.06,0.02,3.76,1.61,3.92,3.66L243,258.9c0.18,2.31-1.65,4.29-3.97,4.29l-178.58,0.08l0,0C58.65,263.23,57.26,261.68,57.41,259.89z
	"/>
</svg>
